<svg version='1.1' baseProfile='full' xmlns='http://www.w3.org/2000/svg' width='1248.5397247334067' height='181.7282275305814'><g transform='translate(5, 5)'><g transform='scale(1.4334950517747762) translate(124, -50)'><g><g><polyline points="20,100 32,100 44,100 " style="fill: none; stroke: black;"></polyline><g transform="translate(30, 105)"><text text-anchor="start" y="3" transform="rotate(90)" font-size="12">254x254</text></g></g><g transform="translate(-14, 105)"><text text-anchor="start" y="3" transform="rotate(90)" font-size="12">256x256</text></g></g><g><g><polyline points="64,100 76,100 88,100 " style="fill: none; stroke: black;"></polyline><g transform="translate(74, 105)"><text text-anchor="start" y="3" transform="rotate(90)" font-size="12">127x127</text></g></g></g><g><g><polyline points="128,100 140,100 152,100 " style="fill: none; stroke: black;"></polyline><g transform="translate(138, 105)"><text text-anchor="start" y="3" transform="rotate(90)" font-size="12">123x123</text></g></g></g><g><g><polyline points="192,100 204,100 216,100 " style="fill: none; stroke: black;"></polyline><g transform="translate(202, 105)"><text text-anchor="start" y="3" transform="rotate(90)" font-size="12">61x61</text></g></g></g><g><g><polyline points="296,100 308,100 320,100 " style="fill: none; stroke: black;"></polyline><g transform="translate(306, 105)"><text text-anchor="start" y="3" transform="rotate(90)" font-size="12">57x57</text></g></g></g><g><g><polyline points="400,100 412,100 424,100 " style="fill: none; stroke: black;"></polyline><g transform="translate(410, 105)"><text text-anchor="start" y="3" transform="rotate(90)" font-size="12">57x57</text></g></g></g><g><g><polyline points="504,100 516,100 528,100 " style="fill: none; stroke: black;"></polyline><g transform="translate(514, 105)"><text text-anchor="start" y="3" transform="rotate(90)" font-size="12">57x57</text></g></g></g><g><g><polyline points="608,100 620,100 632,100 " style="fill: none; stroke: black;"></polyline><g transform="translate(618, 105)"><text text-anchor="start" y="3" transform="rotate(90)" font-size="12">28x28</text></g></g></g><g><g><polyline points="652,100 664,100 676,100 " style="fill: none; stroke: black;"></polyline></g></g><g><g><polyline points="696,100 708,100 720,100 " style="fill: none; stroke: black;"></polyline></g></g><g></g><g><g transform="translate(0, 50)"><path d="M 0 0 L 20 0.30701754385965074 V 99.69298245614036 L 0 100 V 0 z" style="fill: rgb(33, 150, 243); stroke: rgb(12, 124, 213); stroke-width: 4; stroke-linejoin: round;"></path><g></g><text text-anchor="middle" x="10" y="117" font-size="12">32</text></g><g transform="translate(-124, 50)"><rect x="0" y="0" width="100" height="100" style="stroke: lightgrey; stroke-linejoin: round; stroke-width: 2; fill-opacity: 0; stroke-dasharray: 4;"></rect></g></g><g><g transform="translate(44, 50)"><path d="M 0 0.30701754385965074 L 20 19.80263157894737 V 80.19736842105263 L 0 99.69298245614036 V 0.30701754385965074 z" style="fill: rgb(139, 195, 74); stroke: rgb(113, 164, 54); stroke-width: 4; stroke-linejoin: round;"></path><g></g><text text-anchor="middle" x="10" y="116.69298245614036" font-size="12">32</text></g></g><g><g transform="translate(88, 50)"><path d="M 0 19.80263157894737 L 40 20.416666666666664 V 79.58333333333334 L 0 80.19736842105263 V 19.80263157894737 z" style="fill: rgb(33, 150, 243); stroke: rgb(12, 124, 213); stroke-width: 4; stroke-linejoin: round;"></path><g></g><text text-anchor="middle" x="20" y="97.19736842105263" font-size="12">64</text></g></g><g><g transform="translate(152, 50)"><path d="M 0 20.416666666666664 L 40 29.934210526315788 V 70.06578947368422 L 0 79.58333333333334 V 20.416666666666664 z" style="fill: rgb(139, 195, 74); stroke: rgb(113, 164, 54); stroke-width: 4; stroke-linejoin: round;"></path><g></g><text text-anchor="middle" x="20" y="96.58333333333334" font-size="12">64</text></g></g><g><g transform="translate(216, 50)"><path d="M 0 29.934210526315788 L 80 30.54824561403509 V 69.4517543859649 L 0 70.06578947368422 V 29.934210526315788 z" style="fill: rgb(33, 150, 243); stroke: rgb(12, 124, 213); stroke-width: 4; stroke-linejoin: round;"></path><g></g><text text-anchor="middle" x="40" y="87.06578947368422" font-size="12">128</text></g></g><g><g transform="translate(320, 50)"><path d="M 0 30.54824561403509 L 80 30.54824561403509 V 69.4517543859649 L 0 69.4517543859649 V 30.54824561403509 z" style="fill: rgb(244, 67, 54); stroke: rgb(234, 28, 13); stroke-width: 4; stroke-linejoin: round;"></path><g></g><text text-anchor="middle" x="40" y="86.4517543859649" font-size="12">128</text></g></g><g><g transform="translate(424, 50)"><path d="M 0 30.54824561403509 L 80 30.54824561403509 V 69.4517543859649 L 0 69.4517543859649 V 30.54824561403509 z" style="fill: rgb(121, 85, 72); stroke: rgb(89, 63, 53); stroke-width: 4; stroke-linejoin: round;"></path><g></g><text text-anchor="middle" x="40" y="86.4517543859649" font-size="12">128</text></g></g><g><g transform="translate(528, 50)"><path d="M 0 30.54824561403509 L 80 35 V 65 L 0 69.4517543859649 V 30.54824561403509 z" style="fill: rgb(139, 195, 74); stroke: rgb(113, 164, 54); stroke-width: 4; stroke-linejoin: round;"></path><g></g><text text-anchor="middle" x="40" y="86.4517543859649" font-size="12">128</text></g></g><g><g transform="translate(632, 50)"><path d="M 0 0 L 20 0 V 100 L 0 100 V 0 z" style="fill: rgb(255, 235, 59); stroke: rgb(255, 235, 59); stroke-width: 4; stroke-linejoin: round;"></path><g></g><text text-anchor="middle" x="10" y="117" font-size="12">100352</text></g></g><g><g transform="translate(676, 50)"><path d="M 0 0 L 20 0 V 100 L 0 100 V 0 z" style="fill: rgb(156, 39, 176); stroke: rgb(156, 39, 176); stroke-width: 4; stroke-linejoin: round;"></path><g></g><text text-anchor="middle" x="10" y="117" font-size="12">512</text></g></g><g><g transform="translate(720, 50)"><path d="M 0 35 L 20 35 V 65 L 0 65 V 35 z" style="fill: rgb(156, 39, 176); stroke: rgb(156, 39, 176); stroke-width: 4; stroke-linejoin: round;"></path><g></g><text text-anchor="middle" x="10" y="82" font-size="12">1</text></g></g></g></g></svg>